<svg width="35" height="32" viewBox="0 0 35 32" fill="none" xmlns="http://www.w3.org/2000/svg">
<g clip-path="url(#clip0_666_26463)">
<path d="M17.4974 15.6492C19.6554 15.6492 21.7251 14.8327 23.251 13.3792C24.7769 11.9258 25.6342 9.9546 25.6342 7.89917C25.6342 5.84374 24.7769 3.8725 23.251 2.41909C21.7251 0.965686 19.6554 0.14917 17.4974 0.14917C15.3394 0.14917 13.2698 0.965686 11.7439 2.41909C10.218 3.8725 9.36069 5.84374 9.36069 7.89917C9.36069 9.9546 10.218 11.9258 11.7439 13.3792C13.2698 14.8327 15.3394 15.6492 17.4974 15.6492V15.6492ZM22.9219 7.89917C22.9219 9.26945 22.3504 10.5836 21.3331 11.5526C20.3159 12.5215 18.9361 13.0658 17.4974 13.0658C16.0588 13.0658 14.679 12.5215 13.6617 11.5526C12.6444 10.5836 12.0729 9.26945 12.0729 7.89917C12.0729 6.52888 12.6444 5.21472 13.6617 4.24578C14.679 3.27685 16.0588 2.7325 17.4974 2.7325C18.9361 2.7325 20.3159 3.27685 21.3331 4.24578C22.3504 5.21472 22.9219 6.52888 22.9219 7.89917V7.89917ZM33.7709 28.5658C33.7709 31.1492 31.0587 31.1492 31.0587 31.1492H3.93619C3.93619 31.1492 1.22394 31.1492 1.22394 28.5658C1.22394 25.9825 3.93619 18.2325 17.4974 18.2325C31.0587 18.2325 33.7709 25.9825 33.7709 28.5658ZM31.0587 28.5555C31.056 27.92 30.641 26.0083 28.8021 24.2568C27.0337 22.5725 23.7058 20.8158 17.4974 20.8158C11.2864 20.8158 7.96117 22.5725 6.19278 24.2568C4.35388 26.0083 3.94161 27.92 3.93619 28.5555H31.0587Z" fill="#FFFDEE" fill-opacity="0.6"/>
</g>
<defs>
<clipPath id="clip0_666_26463">
<rect width="34" height="31" fill="white" transform="translate(0.5 0.14917)"/>
</clipPath>
</defs>
</svg>
