<svg width="102" height="92" viewBox="0 0 102 92" fill="none" xmlns="http://www.w3.org/2000/svg">
<path fill-rule="evenodd" clip-rule="evenodd" d="M91.2276 62.359L88.1665 59.2686V45.2162L98.2707 55.3413L91.2276 62.359ZM85.0753 79.9676H52.2454L52.3486 42.5974L60.6469 39.844V40.6438C60.6469 45.0886 64.2659 48.7049 68.7142 48.7049C73.1609 48.7049 76.7814 45.0886 76.7814 40.6438V39.844L85.0753 42.596V79.9676ZM46.2021 62.359L39.159 55.3413L49.2517 45.2276L49.213 59.3174L46.2021 62.359ZM40.232 88.5247L44.2255 64.7541L35.8828 56.4364C35.2779 55.8357 35.2751 54.8601 35.8784 54.2548L47.7685 42.3394L35.4625 39.0456L33.0842 47.9166L27.9245 85.228L40.232 88.5247ZM15.8939 82.0087L3.58638 78.7134L19.9562 34.8946L32.4759 38.2473L30.0976 47.1168L15.8939 82.0087ZM21.7378 29.1971L49.289 36.5731L48.546 39.3509L20.9947 31.9749L21.7378 29.1971ZM45.9912 31.0963H71.4166L73.7978 36.1617H62.1932C62.0283 36.1617 61.8633 36.1875 61.7069 36.242L51.6873 39.563L52.3874 36.9472C52.7661 35.5374 51.9284 34.0814 50.5154 33.7049L45.4074 32.3376L45.9912 31.0963ZM35.2229 11.9654L43.9185 4.36294C45.9381 2.92963 47.8101 2.74612 49.7323 3.80823C50.2386 7.4633 51.2169 10.651 52.5796 13.0691C54.6882 16.8087 57.0737 17.5927 58.7046 17.5927C63.0338 17.5927 66.5195 12.1976 67.6785 3.78816C68.8791 2.99412 70.6922 2.54691 73.5123 4.38156L82.1849 11.9654L71.0838 20.6458C70.7095 20.941 70.49 21.3868 70.49 21.8626V28.0074H46.9165V21.8626C46.9165 21.3868 46.6984 20.941 46.324 20.6458L35.2229 11.9654ZM64.0508 6.37539C60.5135 8.2903 56.8858 8.25731 53.3341 6.28364C54.5663 11.4938 56.8413 14.5039 58.7046 14.5039C60.5537 14.5039 62.8158 11.5268 64.0508 6.37539ZM63.7381 39.2491V40.6438C63.7381 43.3872 65.97 45.616 68.7142 45.616C71.4568 45.616 73.6916 43.3872 73.6916 40.6438V39.2491H63.7381ZM101.548 54.2548L87.7161 40.3901V40.3929C87.5483 40.2238 87.3432 40.0934 87.1079 40.016L77.5302 36.8411L73.5812 28.436V22.6166L85.5602 13.2482C86.3217 12.6527 86.3528 11.5071 85.6233 10.8704L75.3025 1.8632C70.6994 -1.18556 67.3313 0.0471653 65.2571 1.74138C65.2543 1.74425 65.2529 1.74425 65.2529 1.74565L64.9717 1.98215C60.7587 5.62286 56.8126 5.6214 52.5552 1.97643L52.0187 1.59231C48.7927 -0.580643 45.3572 -0.480305 42.0566 1.89903L31.7831 10.8704C31.0552 11.5056 31.0864 12.653 31.8477 13.2482L43.8267 22.6166V28.436L42.375 31.5234L22.1136 26.101C20.6997 25.7219 19.2458 26.5645 18.8674 27.9716L17.9136 31.5306L0.0978533 79.2251C-0.220845 80.0743 0.267772 81.021 1.145 81.2562L16.4117 85.3441C17.1633 85.5462 17.9508 85.1563 18.2435 84.4339L28.3448 59.6198L24.6769 86.1568C24.5693 86.9265 25.0556 87.659 25.8073 87.8596L41.0754 91.9475C41.957 92.1806 42.8476 91.6144 42.999 90.712L47.1947 65.7359L49.2001 63.7221L49.1513 81.5085C49.1501 82.3631 49.8409 83.0565 50.6962 83.0565H86.6217C87.4752 83.0565 88.1665 82.3642 88.1665 81.5113V63.6604L90.1203 65.6327C90.7209 66.2405 91.7046 66.2446 92.3107 65.6413L101.547 56.4364C102.151 55.8355 102.151 54.8539 101.548 54.2548Z" fill="#FFFDEE"/>
</svg>
