<svg width="88" height="97" viewBox="0 0 88 97" fill="none" xmlns="http://www.w3.org/2000/svg">
<path d="M32.1148 24.4505C31.9412 24.4504 31.7707 24.4052 31.6199 24.3193C31.4691 24.2334 31.3433 24.1097 31.2548 23.9605C31.1196 23.7324 31.0805 23.4599 31.1461 23.203C31.2117 22.9461 31.3767 22.7257 31.6048 22.5905L43.4948 15.5305C43.6468 15.4427 43.8193 15.3965 43.9948 15.3965C44.1703 15.3965 44.3428 15.4427 44.4948 15.5305L56.3448 22.5305C56.5625 22.6688 56.7182 22.8859 56.7796 23.1365C56.841 23.387 56.8032 23.6515 56.6741 23.8748C56.545 24.0981 56.3346 24.2629 56.0869 24.3348C55.8392 24.4066 55.5733 24.38 55.3448 24.2605L44.0048 17.5605L32.6248 24.3105C32.4693 24.3995 32.2939 24.4476 32.1148 24.4505Z" fill="#FFFDEE"/>
<path d="M44.0046 17.3897C43.7394 17.3897 43.4851 17.2844 43.2975 17.0968C43.11 16.9093 43.0046 16.6549 43.0046 16.3897V11.7197C43.0046 11.4545 43.11 11.2002 43.2975 11.0126C43.4851 10.8251 43.7394 10.7197 44.0046 10.7197C44.2699 10.7197 44.5242 10.8251 44.7117 11.0126C44.8993 11.2002 45.0046 11.4545 45.0046 11.7197V16.3897C45.0046 16.6549 44.8993 16.9093 44.7117 17.0968C44.5242 17.2844 44.2699 17.3897 44.0046 17.3897Z" fill="#FFFDEE"/>
<path d="M44.0053 12.72C43.7401 12.72 43.4857 12.6146 43.2982 12.4271C43.1106 12.2396 43.0053 11.9852 43.0053 11.72C43.0053 11.4548 43.1106 11.2004 43.2982 11.0129C43.4857 10.8254 43.7401 10.72 44.0053 10.72C44.8652 10.718 45.7052 10.4612 46.4193 9.98204C47.1333 9.50286 47.6893 8.82279 48.017 8.02776C48.3447 7.23273 48.4294 6.3584 48.2605 5.51525C48.0915 4.67209 47.6764 3.89793 47.0677 3.29057C46.4589 2.68321 45.6838 2.26991 44.8402 2.10287C43.9967 1.93583 43.1226 2.02256 42.3283 2.35209C41.534 2.68163 40.8552 3.23918 40.3777 3.95431C39.9001 4.66945 39.6453 5.51008 39.6453 6.37C39.6453 6.63522 39.5399 6.88957 39.3524 7.07711C39.1648 7.26465 38.9105 7.37 38.6453 7.37C38.3801 7.37 38.1257 7.26465 37.9382 7.07711C37.7506 6.88957 37.6453 6.63522 37.6453 6.37C37.6433 5.11169 38.0146 3.88107 38.7123 2.83386C39.4099 1.78664 40.4025 0.969911 41.5645 0.487004C42.7264 0.00409693 44.0055 -0.12328 45.2399 0.120992C46.4743 0.365263 47.6085 0.970204 48.4989 1.85927C49.3894 2.74833 49.9961 3.88155 50.2423 5.11555C50.4885 6.34954 50.3632 7.62883 49.8821 8.79155C49.401 9.95428 48.5859 10.9482 47.5397 11.6475C46.4936 12.3467 45.2636 12.72 44.0053 12.72Z" fill="#FFFDEE"/>
<path d="M67.705 96.02H20.295C20.0298 96.02 19.7754 95.9147 19.5879 95.7271C19.4004 95.5396 19.295 95.2852 19.295 95.02V49.95L15.175 54.95C15.0899 55.0531 14.985 55.1381 14.8665 55.1999C14.748 55.2617 14.6182 55.2992 14.485 55.31C14.3418 55.3205 14.198 55.3001 14.0634 55.25C13.9288 55.2 13.8066 55.1215 13.705 55.02L1.04501 43.96C0.885413 43.8206 0.77423 43.6341 0.727499 43.4274C0.680769 43.2207 0.700907 43.0045 0.785007 42.81C0.875007 42.6 10.115 21.81 30.535 20.1C30.7315 20.0734 30.9315 20.1057 31.1095 20.193C31.2876 20.2802 31.4357 20.4184 31.535 20.59C35.695 27.59 39.855 31.18 43.895 31.21C47.965 31.21 52.215 27.63 56.525 20.57C56.6226 20.4122 56.7623 20.2846 56.9283 20.2016C57.0943 20.1186 57.2801 20.0834 57.465 20.1C77.885 21.83 87.125 42.6 87.215 42.81C87.2991 43.0045 87.3192 43.2207 87.2725 43.4274C87.2258 43.6341 87.1146 43.8206 86.955 43.96L74.255 55.02C74.1548 55.1092 74.0376 55.1773 73.9104 55.2203C73.7833 55.2632 73.6488 55.2801 73.515 55.27C73.3818 55.2592 73.2521 55.2217 73.1336 55.1599C73.015 55.0981 72.9101 55.0131 72.825 54.91L68.705 49.91V95.02C68.705 95.2852 68.5997 95.5396 68.4121 95.7271C68.2246 95.9147 67.9702 96.02 67.705 96.02ZM21.295 94.02H66.705V47.16C66.7067 46.955 66.7713 46.7554 66.8902 46.5883C67.0091 46.4212 67.1765 46.2947 67.3697 46.2259C67.5628 46.1572 67.7725 46.1495 67.9702 46.2039C68.168 46.2583 68.3442 46.3721 68.475 46.53L73.705 52.88L85.055 42.96C83.375 39.55 74.705 23.93 57.905 22.15C53.245 29.59 48.665 33.21 43.905 33.21H43.835C39.095 33.21 34.585 29.56 30.085 22.15C13.275 23.94 4.62501 39.55 2.93501 42.96L14.285 52.88L19.525 46.53C19.6554 46.3702 19.8321 46.2545 20.0309 46.199C20.2296 46.1435 20.4406 46.1509 20.635 46.22C20.8283 46.2899 20.9953 46.4176 21.1134 46.5858C21.2315 46.754 21.2949 46.9545 21.295 47.16V94.02Z" fill="#FFFDEE"/>
</svg>
